<svg width="64" height="64" viewBox="0 0 64 64" fill="none" xmlns="http://www.w3.org/2000/svg">
<circle cx="32.0825" cy="31.9175" r="31.7526" fill="#F7FAFC"/>
<path d="M29.1185 63.8317C29.8122 60.6804 30.3015 57.3098 31.2671 54.2542C31.6247 53.1211 32.4041 52.3748 33.5107 51.9999C34.6879 51.5489 36.262 51.543 38.1089 51.9619C39.4671 52.2687 40.8341 52.4085 42.0538 52.0861C42.7378 51.8727 43.3714 51.5037 43.9256 50.9244C46.2062 48.539 48.2719 45.9155 50.1616 43.204C50.6276 42.5313 50.4179 40.8936 49.895 40.1148C47.8344 37.0334 46.3718 33.7812 45.748 30.1124C45.0232 25.846 42.0773 23.2743 38.5955 21.1682C38.4661 21.088 38.3315 21.0182 38.1995 20.9431C33.573 18.279 32.59 17.4299 34.6382 14.5693C35.1657 13.7958 35.9336 12.8723 36.9283 11.7145C37.0123 11.5499 37.0567 11.3391 37.0164 11.021C35.1293 12.2163 33.2396 13.409 30.8451 14.9252C31.4431 12.1801 31.9867 9.95242 32.3905 7.69633C32.5407 6.86322 32.3647 5.97321 32.3362 5.10647C31.4586 5.41436 30.3792 5.49715 29.732 6.06635C26.3797 9.03136 23.1672 12.1542 19.8485 15.1606C15.1217 19.4399 10.3016 23.6158 5.61358 27.9365C3.73681 29.6622 2.09818 31.6441 0.309427 33.5561C0.10393 32.484 0.003548 31.3759 0.00106252 30.2446C-0.100069 20.5343 7.02882 9.06416 16.8431 3.82318C29.323 -2.84421 44.4277 -0.647618 54.4665 9.29267C64.438 19.1657 66.848 34.1796 60.4592 46.6425C55.0517 57.1936 42.9491 64.5336 31.9517 63.9696C30.9975 63.9753 30.0514 63.93 29.1185 63.8317Z" fill="#2D3748"/>
</svg>
